<svg width="1600" height="900" viewBox="0 0 1600 900" fill="none" xmlns="http://www.w3.org/2000/svg">
  <defs>
    <linearGradient id="bg" x1="120" y1="80" x2="1480" y2="840" gradientUnits="userSpaceOnUse">
      <stop stop-color="#1A1C1A"/>
      <stop offset="1" stop-color="#3B2A20"/>
    </linearGradient>
    <linearGradient id="accent" x1="340" y1="180" x2="1220" y2="720" gradientUnits="userSpaceOnUse">
      <stop stop-color="#BA002C"/>
      <stop offset="1" stop-color="#FFCC66"/>
    </linearGradient>
  </defs>
  <rect width="1600" height="900" fill="url(#bg)"/>
  <circle cx="1210" cy="250" r="260" fill="#BA002C" fill-opacity="0.18"/>
  <circle cx="350" cy="720" r="220" fill="#FFCC66" fill-opacity="0.08"/>
  <path d="M260 250C420 160 610 140 800 180C990 220 1180 220 1360 160" stroke="url(#accent)" stroke-width="10" stroke-linecap="round"/>
  <rect x="210" y="210" width="1180" height="480" rx="48" fill="#F5F1E8" fill-opacity="0.05" stroke="#F5F1E8" stroke-opacity="0.12"/>
  <g>
    <rect x="300" y="320" width="420" height="120" rx="30" fill="#F5F1E8" fill-opacity="0.08"/>
    <rect x="300" y="470" width="300" height="80" rx="24" fill="#F5F1E8" fill-opacity="0.08"/>
    <rect x="860" y="320" width="420" height="120" rx="30" fill="#F5F1E8" fill-opacity="0.08"/>
    <rect x="980" y="470" width="300" height="80" rx="24" fill="#F5F1E8" fill-opacity="0.08"/>
  </g>
  <circle cx="800" cy="470" r="110" fill="url(#accent)" fill-opacity="0.16" stroke="#FFCC66" stroke-opacity="0.35" stroke-width="2"/>
  <text x="800" y="450" text-anchor="middle" fill="#F5F1E8" font-family="Inter, Arial, sans-serif" font-size="50" font-weight="700" letter-spacing="2">CLICK AND EAT</text>
  <text x="800" y="505" text-anchor="middle" fill="#F5F1E8" fill-opacity="0.72" font-family="Inter, Arial, sans-serif" font-size="20" letter-spacing="6">API</text>
</svg>
